<?xml version="1.0" encoding="utf-8"?><svg xmlns="http://www.w3.org/2000/svg" xmlns:xlink="http://www.w3.org/1999/xlink"><symbol fill="none" viewBox="0 0 160 20" id="footer-logo" xmlns="http://www.w3.org/2000/svg"><path d="M29.24.331v11.41c0 2.688-.735 4.742-2.205 6.16C25.564 19.3 23.478 20 20.779 20c-1.341 0-2.542-.193-3.603-.58-1.043-.387-1.9-.93-2.57-1.63-.688.7-1.554 1.243-2.597 1.63-1.043.387-2.225.58-3.547.58-2.7 0-4.785-.7-6.256-2.1C.736 16.484 0 14.43 0 11.74V.331h4.524v11.271c0 1.566.326 2.726.978 3.48.652.737 1.62 1.106 2.904 1.106 2.626 0 3.938-1.529 3.938-4.586V.332h4.525v11.27c0 3.057 1.322 4.586 3.965 4.586 2.57 0 3.855-1.529 3.855-4.586V.332h4.552Zm68.447 0v11.41c0 2.688-.736 4.742-2.207 6.16C94.01 19.3 91.924 20 89.225 20c-1.341 0-2.542-.193-3.603-.58-1.043-.387-1.9-.93-2.57-1.63-.689.7-1.554 1.243-2.597 1.63-1.043.387-2.225.58-3.547.58-2.7 0-4.785-.7-6.256-2.1-1.47-1.417-2.206-3.47-2.206-6.16V.331h4.524v11.271c0 1.566.326 2.726.978 3.48.651.737 1.62 1.106 2.904 1.106 2.626 0 3.938-1.529 3.938-4.586V.332h4.524v11.27c0 3.057 1.323 4.586 3.966 4.586 2.57 0 3.854-1.529 3.854-4.586V.332h4.553ZM110.957 0c1.806 0 3.38.35 4.72 1.05 1.341.7 2.384 1.73 3.128 3.094.745 1.362 1.117 3.01 1.117 4.944v10.58h-4.524v-4.64h-8.937v4.64h-4.469V9.089c0-1.933.373-3.582 1.118-4.944.744-1.363 1.787-2.394 3.128-3.094 1.34-.7 2.913-1.05 4.719-1.05Zm4.441 11.437V8.674c0-1.602-.4-2.808-1.201-3.619-.801-.828-1.89-1.243-3.267-1.243-1.397 0-2.495.415-3.296 1.243-.782.81-1.173 2.017-1.173 3.619v2.763h8.937ZM142.638.331l-8.462 19.338h-4.468L121.273.33h4.888l5.948 13.813L138.142.33h4.496ZM160 18.011c-.931.626-2.104 1.114-3.519 1.464-1.396.35-2.886.525-4.468.525-1.974 0-3.65-.24-5.028-.718-1.377-.497-2.42-1.179-3.128-2.044a4.692 4.692 0 0 1-1.061-3.011c0-1.032.289-1.943.866-2.735.577-.792 1.368-1.382 2.374-1.768a4.553 4.553 0 0 1-1.788-1.658c-.409-.7-.614-1.482-.614-2.348 0-1.05.326-2.007.978-2.873.651-.865 1.638-1.556 2.96-2.072C148.894.258 150.514 0 152.431 0c1.267 0 2.505.129 3.715.387 1.21.24 2.262.57 3.156.994l-1.257 3.426a12.823 12.823 0 0 0-5.446-1.188c-1.452 0-2.551.22-3.296.663-.726.423-1.089 1.003-1.089 1.74 0 .681.242 1.206.726 1.575.503.35 1.257.525 2.263.525h5.334v3.536h-5.614c-1.135 0-2.011.193-2.625.58-.614.386-.922.948-.922 1.685 0 .773.391 1.38 1.173 1.823.801.423 2.021.635 3.659.635 1.154 0 2.309-.147 3.463-.442 1.154-.313 2.132-.746 2.933-1.298L160 18.01Z" fill="#fff"/><path d="M56.823 11.203H33.548V7.83h23.275l-4.121-4.155 2.365-2.384 8.159 8.225-8.159 8.226-2.365-2.384 4.121-4.155Z" fill="#AA9DFA"/></symbol><symbol fill="none" viewBox="0 0 160 20" id="header-logo" xmlns="http://www.w3.org/2000/svg"><path d="M29.24.331v11.41c0 2.688-.735 4.742-2.205 6.16C25.564 19.3 23.478 20 20.779 20c-1.341 0-2.542-.193-3.603-.58-1.043-.387-1.9-.93-2.57-1.63-.688.7-1.554 1.243-2.597 1.63-1.043.387-2.225.58-3.547.58-2.7 0-4.785-.7-6.256-2.1C.736 16.484 0 14.43 0 11.74V.331h4.524v11.271c0 1.566.326 2.726.978 3.48.652.737 1.62 1.106 2.904 1.106 2.626 0 3.938-1.529 3.938-4.586V.332h4.525v11.27c0 3.057 1.322 4.586 3.965 4.586 2.57 0 3.855-1.529 3.855-4.586V.332h4.552Zm68.447 0v11.41c0 2.688-.736 4.742-2.207 6.16C94.01 19.3 91.924 20 89.225 20c-1.341 0-2.542-.193-3.603-.58-1.043-.387-1.9-.93-2.57-1.63-.689.7-1.554 1.243-2.597 1.63-1.043.387-2.225.58-3.547.58-2.7 0-4.785-.7-6.256-2.1-1.47-1.417-2.206-3.47-2.206-6.16V.331h4.524v11.271c0 1.566.326 2.726.978 3.48.651.737 1.62 1.106 2.904 1.106 2.626 0 3.938-1.529 3.938-4.586V.332h4.524v11.27c0 3.057 1.323 4.586 3.966 4.586 2.57 0 3.854-1.529 3.854-4.586V.332h4.553ZM110.957 0c1.806 0 3.38.35 4.72 1.05 1.341.7 2.384 1.73 3.128 3.094.745 1.362 1.117 3.01 1.117 4.944v10.58h-4.524v-4.64h-8.937v4.64h-4.469V9.089c0-1.933.373-3.582 1.118-4.944.744-1.363 1.787-2.394 3.128-3.094 1.34-.7 2.913-1.05 4.719-1.05Zm4.441 11.437V8.674c0-1.602-.4-2.808-1.201-3.619-.801-.828-1.89-1.243-3.267-1.243-1.397 0-2.495.415-3.296 1.243-.782.81-1.173 2.017-1.173 3.619v2.763h8.937ZM142.638.331l-8.462 19.338h-4.468L121.273.33h4.888l5.948 13.813L138.142.33h4.496ZM160 18.011c-.931.626-2.104 1.114-3.519 1.464-1.396.35-2.886.525-4.468.525-1.974 0-3.65-.24-5.028-.718-1.377-.497-2.42-1.179-3.128-2.044a4.692 4.692 0 0 1-1.061-3.011c0-1.032.289-1.943.866-2.735.577-.792 1.368-1.382 2.374-1.768a4.553 4.553 0 0 1-1.788-1.658c-.409-.7-.614-1.482-.614-2.348 0-1.05.326-2.007.978-2.873.651-.865 1.638-1.556 2.96-2.072C148.894.258 150.514 0 152.431 0c1.267 0 2.505.129 3.715.387 1.21.24 2.262.57 3.156.994l-1.257 3.426a12.823 12.823 0 0 0-5.446-1.188c-1.452 0-2.551.22-3.296.663-.726.423-1.089 1.003-1.089 1.74 0 .681.242 1.206.726 1.575.503.35 1.257.525 2.263.525h5.334v3.536h-5.614c-1.135 0-2.011.193-2.625.58-.614.386-.922.948-.922 1.685 0 .773.391 1.38 1.173 1.823.801.423 2.021.635 3.659.635 1.154 0 2.309-.147 3.463-.442 1.154-.313 2.132-.746 2.933-1.298L160 18.01Z" fill="#292E39"/><path d="M56.823 11.202H33.548V7.83h23.275l-4.121-4.155 2.365-2.385 8.159 8.226-8.159 8.226-2.365-2.385 4.121-4.155Z" fill="#6D31EE"/></symbol><symbol fill="none" viewBox="0 0 42 42" id="swiper-next" xmlns="http://www.w3.org/2000/svg"><circle cx="21" cy="21" r="20" transform="rotate(-90 21 21)" stroke="#A1A6B4" stroke-width="2"/><path d="m19 29 8-8-8-8" stroke="#A1A6B4" stroke-width="2" stroke-linecap="square"/></symbol><symbol fill="none" viewBox="0 0 42 42" id="swiper-prev" xmlns="http://www.w3.org/2000/svg"><circle cx="21" cy="21" r="20" transform="matrix(0 -1 -1 0 42 42)" stroke="#A1A6B4" stroke-width="2"/><path d="m23 29-8-8 8-8" stroke="#A1A6B4" stroke-width="2" stroke-linecap="square"/></symbol></svg>